<svg width="1221" height="307" viewBox="0 0 1221 307" fill="none" xmlns="http://www.w3.org/2000/svg">
<path fill-rule="evenodd" clip-rule="evenodd" d="M256 179C256 249.692 198.692 307 128 307C57.3076 307 0 249.692 0 179C0 108.308 57.3076 51 128 51C198.692 51 256 108.308 256 179ZM206 179C206 222.078 171.078 257 128 257C84.9218 257 50 222.078 50 179H206ZM187.869 129H68.131C82.4391 111.886 103.948 101 128 101C152.052 101 173.561 111.886 187.869 129Z" fill="url(#paint0_linear_8_17)"/>
<path d="M327.592 243V115H359.336L361.384 138.552V243H327.592ZM412.328 243V177.464H446.12V243H412.328ZM412.328 177.464C412.328 168.76 411.304 162.019 409.256 157.24C407.379 152.461 404.648 149.048 401.064 147C397.48 144.781 393.299 143.672 388.52 143.672C379.816 143.501 373.075 146.147 368.296 151.608C363.688 157.069 361.384 165.176 361.384 175.928H350.12C350.12 162.275 352.083 150.755 356.008 141.368C360.104 131.811 365.736 124.557 372.904 119.608C380.243 114.488 388.776 111.928 398.504 111.928C408.573 111.928 417.192 113.976 424.36 118.072C431.528 122.168 436.989 128.568 440.744 137.272C444.499 145.805 446.291 156.899 446.12 170.552V177.464H412.328ZM518.148 246.072C505.519 246.072 494.34 243.256 484.612 237.624C474.884 231.821 467.204 223.885 461.572 213.816C456.111 203.747 453.38 192.141 453.38 179C453.38 165.859 456.196 154.253 461.828 144.184C467.631 134.115 475.481 126.264 485.38 120.632C495.449 114.829 506.969 111.928 519.94 111.928C531.204 111.928 541.529 114.915 550.916 120.888C560.473 126.691 568.068 135.309 573.7 146.744C579.503 158.008 582.404 171.747 582.404 187.96H485.38L488.452 184.888C488.452 191.203 489.988 196.749 493.06 201.528C496.303 206.136 500.399 209.72 505.348 212.28C510.468 214.669 515.929 215.864 521.732 215.864C528.729 215.864 534.447 214.413 538.884 211.512C543.321 208.44 546.735 204.515 549.124 199.736L579.332 211.512C575.748 218.68 571.055 224.909 565.252 230.2C559.62 235.32 552.879 239.245 545.028 241.976C537.177 244.707 528.217 246.072 518.148 246.072ZM490.244 165.944L487.172 162.872H548.868L546.052 165.944C546.052 159.8 544.601 154.936 541.7 151.352C538.799 147.597 535.215 144.867 530.948 143.16C526.852 141.453 522.841 140.6 518.916 140.6C514.991 140.6 510.809 141.453 506.372 143.16C501.935 144.867 498.095 147.597 494.852 151.352C491.78 154.936 490.244 159.8 490.244 165.944ZM676.282 243L674.234 219.448V115H708.026V243H676.282ZM589.498 180.536V115H623.29V180.536H589.498ZM623.29 180.536C623.29 189.069 624.229 195.811 626.106 200.76C628.154 205.539 630.97 209.037 634.554 211.256C638.309 213.304 642.49 214.328 647.098 214.328C655.973 214.499 662.714 211.853 667.322 206.392C671.93 200.76 674.234 192.653 674.234 182.072H685.754C685.754 195.725 683.706 207.331 679.61 216.888C675.514 226.275 669.882 233.528 662.714 238.648C655.546 243.597 647.098 246.072 637.37 246.072C627.13 246.072 618.426 244.024 611.258 239.928C604.09 235.832 598.629 229.517 594.874 220.984C591.29 212.28 589.498 201.101 589.498 187.448V180.536H623.29ZM740.63 175.672C740.63 161.848 743.275 150.413 748.566 141.368C754.027 132.323 760.939 125.581 769.302 121.144C777.835 116.707 786.71 114.488 795.926 114.488V147.256C788.075 147.256 780.651 148.195 773.654 150.072C766.827 151.949 761.281 155.021 757.014 159.288C752.747 163.555 750.614 169.016 750.614 175.672H740.63ZM716.822 243V115H750.614V243H716.822ZM878.334 243L877.31 217.144V178.232C877.31 170.552 876.457 163.981 874.75 158.52C873.214 153.059 870.654 148.877 867.07 145.976C863.657 142.904 858.963 141.368 852.99 141.368C847.529 141.368 842.579 142.563 838.142 144.952C833.705 147.341 829.95 151.011 826.878 155.96L797.182 145.72C799.571 140.259 803.07 134.968 807.678 129.848C812.286 124.557 818.259 120.291 825.598 117.048C833.107 113.635 842.238 111.928 852.99 111.928C865.961 111.928 876.713 114.403 885.246 119.352C893.95 124.301 900.35 131.299 904.446 140.344C908.713 149.219 910.761 159.8 910.59 172.088L909.822 243H878.334ZM842.494 246.072C827.134 246.072 815.187 242.659 806.654 235.832C798.291 229.005 794.11 219.363 794.11 206.904C794.11 193.251 798.633 183.011 807.678 176.184C816.894 169.187 829.779 165.688 846.334 165.688H878.846V190.776H858.11C847.017 190.776 839.337 192.141 835.07 194.872C830.803 197.432 828.67 201.101 828.67 205.88C828.67 209.635 830.377 212.621 833.79 214.84C837.203 216.888 841.982 217.912 848.126 217.912C853.758 217.912 858.707 216.632 862.974 214.072C867.411 211.341 870.91 207.928 873.47 203.832C876.03 199.565 877.31 195.213 877.31 190.776H885.502C885.502 208.184 882.174 221.752 875.518 231.48C869.033 241.208 858.025 246.072 842.494 246.072ZM977.458 246.072C963.293 246.072 952.541 242.573 945.202 235.576C938.034 228.579 934.45 218.595 934.45 205.624V75.064H968.242V198.2C968.242 203.661 969.437 207.843 971.826 210.744C974.215 213.475 977.714 214.84 982.322 214.84C984.029 214.84 985.906 214.499 987.954 213.816C990.002 212.963 992.135 211.768 994.354 210.232L1006.13 235.576C1002.03 238.648 997.426 241.123 992.306 243C987.357 245.048 982.407 246.072 977.458 246.072ZM913.714 143.672V115H1000.24V143.672H913.714ZM1067.71 246.072C1054.74 246.072 1043.14 243.256 1032.9 237.624C1022.83 231.821 1014.89 223.885 1009.09 213.816C1003.46 203.747 1000.64 192.141 1000.64 179C1000.64 165.859 1003.46 154.253 1009.09 144.184C1014.72 134.115 1022.57 126.264 1032.64 120.632C1042.71 114.829 1054.23 111.928 1067.2 111.928C1080.34 111.928 1091.95 114.829 1102.02 120.632C1112.09 126.264 1119.94 134.115 1125.57 144.184C1131.2 154.253 1134.02 165.859 1134.02 179C1134.02 192.141 1131.2 203.747 1125.57 213.816C1119.94 223.885 1112.09 231.821 1102.02 237.624C1092.12 243.256 1080.68 246.072 1067.71 246.072ZM1067.71 214.84C1074.03 214.84 1079.57 213.304 1084.35 210.232C1089.13 207.16 1092.8 202.979 1095.36 197.688C1098.09 192.227 1099.46 185.997 1099.46 179C1099.46 172.003 1098.09 165.859 1095.36 160.568C1092.63 155.107 1088.79 150.84 1083.84 147.768C1079.06 144.696 1073.51 143.16 1067.2 143.16C1061.06 143.16 1055.51 144.696 1050.56 147.768C1045.78 150.84 1042.03 155.107 1039.3 160.568C1036.57 165.859 1035.2 172.003 1035.2 179C1035.2 185.997 1036.57 192.227 1039.3 197.688C1042.03 202.979 1045.87 207.16 1050.82 210.232C1055.77 213.304 1061.4 214.84 1067.71 214.84ZM1162.19 175.672C1162.19 161.848 1164.84 150.413 1170.13 141.368C1175.59 132.323 1182.5 125.581 1190.86 121.144C1199.4 116.707 1208.27 114.488 1217.49 114.488V147.256C1209.64 147.256 1202.21 148.195 1195.21 150.072C1188.39 151.949 1182.84 155.021 1178.57 159.288C1174.31 163.555 1172.17 169.016 1172.17 175.672H1162.19ZM1138.38 243V115H1172.17V243H1138.38Z" fill="#D1D1D1"/>
<defs>
<linearGradient id="paint0_linear_8_17" x1="128" y1="51" x2="128" y2="307" gradientUnits="userSpaceOnUse">
<stop offset="0.47" stop-color="#00AAFF"/>
<stop offset="1" stop-color="#0055FF"/>
</linearGradient>
</defs>
</svg>
